<svg width="32" height="32" viewBox="0 0 32 32" fill="none" xmlns="http://www.w3.org/2000/svg">
<path d="M26.749 24.9284C28.1851 23.2005 29.184 21.1521 29.661 18.9565C30.1381 16.761 30.0793 14.4828 29.4897 12.3148C28.9001 10.1467 27.797 8.15258 26.2737 6.50103C24.7504 4.84948 22.8517 3.58911 20.7383 2.82654C18.6248 2.06397 16.3589 1.82163 14.132 2.12003C11.9051 2.41843 9.78282 3.24879 7.94472 4.54086C6.10662 5.83292 4.60675 7.54869 3.57199 9.54302C2.53724 11.5373 1.99804 13.7516 2.00001 15.9984C2.00076 19.2645 3.15175 22.4261 5.25101 24.9284L5.23101 24.9454C5.30101 25.0294 5.38101 25.1014 5.45301 25.1844C5.54301 25.2874 5.64001 25.3844 5.73301 25.4844C6.01301 25.7884 6.30101 26.0804 6.60301 26.3544C6.69501 26.4384 6.79001 26.5163 6.88301 26.5963C7.20301 26.8723 7.53201 27.1343 7.87301 27.3783C7.91701 27.4083 7.95701 27.4473 8.00101 27.4783V27.4664C10.3431 29.1145 13.1371 29.9991 16.001 29.9991C18.8649 29.9991 21.6589 29.1145 24.001 27.4664V27.4783C24.045 27.4473 24.084 27.4083 24.129 27.3783C24.469 27.1333 24.799 26.8723 25.119 26.5963C25.212 26.5163 25.307 26.4374 25.399 26.3544C25.701 26.0794 25.989 25.7884 26.269 25.4844C26.362 25.3844 26.458 25.2874 26.549 25.1844C26.62 25.1014 26.701 25.0293 26.771 24.9443L26.749 24.9284ZM16 7.99835C16.89 7.99835 17.7601 8.26227 18.5001 8.75674C19.2401 9.2512 19.8169 9.95401 20.1575 10.7763C20.4981 11.5985 20.5872 12.5033 20.4135 13.3763C20.2399 14.2492 19.8113 15.051 19.182 15.6803C18.5526 16.3097 17.7508 16.7383 16.8779 16.9119C16.005 17.0855 15.1002 16.9964 14.2779 16.6558C13.4557 16.3152 12.7529 15.7384 12.2584 14.9984C11.7639 14.2584 11.5 13.3884 11.5 12.4984C11.5 11.3049 11.9741 10.1603 12.818 9.31637C13.6619 8.47246 14.8065 7.99835 16 7.99835V7.99835ZM8.00701 24.9284C8.02435 23.6153 8.55795 22.3619 9.49236 21.4393C10.4268 20.5167 11.6869 19.999 13 19.9984H19C20.3132 19.999 21.5732 20.5167 22.5076 21.4393C23.4421 22.3619 23.9757 23.6153 23.993 24.9284C21.7998 26.9047 18.9523 27.9984 16 27.9984C13.0477 27.9984 10.2002 26.9047 8.00701 24.9284V24.9284Z" fill="#102E46"/>
</svg>
