<svg xmlns="http://www.w3.org/2000/svg" width="162" height="31.354" viewBox="0 0 162 31.354"><path d="M10.263,30.871h-6.1V15.654H0V10.7H4.158V7.174C4.158,3,6,0,12.085,0c1.288,0,3.309.26,3.309.26v4.6H13.271c-2.163,0-3.008.658-3.008,2.477V10.7h5.05l-.45,4.954h-4.6ZM24.269,10.3c-.089,0-.18,0-.271.006-5.66,0-8.25,4.258-8.25,10.3,0,7.614,3.359,10.661,8.294,10.661a5.964,5.964,0,0,0,5.806-3.406v3.008h5.806V10.7H29.848v3.1A5.95,5.95,0,0,0,24.269,10.3Zm1.476,4.767c2.377,0,3.8,1.658,3.8,4.479l.006,2.881a3.86,3.86,0,0,1-3.81,4.125c-4.045,0-3.937-4.368-3.937-5.823,0-4.894,2.155-5.662,3.937-5.662ZM38,20.788c0-2.451-.117-10.472,10.332-10.472,4.195,0,5.946,1.334,5.946,1.334L52.87,16.017a9.188,9.188,0,0,0-4.029-.963c-2.919,0-4.782,1.692-4.782,4.67l0,2.135a4.455,4.455,0,0,0,4.785,4.771,10.006,10.006,0,0,0,3.99-.972l1.4,4.275s-1.6,1.342-5.881,1.342c-9.95,0-10.362-7.2-10.362-10.487ZM88.321,10.309c5.66,0,8.291,4.258,8.291,10.3,0,7.614-3.359,10.661-8.294,10.661a6.3,6.3,0,0,1-6.038-3.406v3.008l-5.733,0V.613L82.633.082V13.53c.879-2.353,3.766-3.221,5.688-3.221ZM86.615,15.07c-2.377,0-3.981,1.658-3.981,4.479l-.006,2.881a3.855,3.855,0,0,0,3.987,4.125c4.045,0,3.937-4.368,3.937-5.823,0-4.894-2.155-5.662-3.937-5.662ZM64.839,10.326c-6.42,0-9.809,3.5-9.809,9.721V21.2c0,8.074,4.76,10.152,10.434,10.152,5.516,0,8.012-1.543,8.012-1.543L72.337,25.7a17.76,17.76,0,0,1-6.143,1.25c-3.324,0-4.754-.847-5.12-4.042H73.963v-3.3c0-6.748-3.8-9.29-9.124-9.29Zm.155,4.114c2.222,0,3.662,1.363,3.583,4.523H61.085c.13-3.326,1.683-4.523,3.909-4.523ZM108.749,10.3c-6.593,0-10.064,3.715-10.064,10.373,0,9.135,5.983,10.606,10.075,10.606,5.99,0,9.975-3.225,9.975-10.523,0-7.6-4.481-10.456-9.986-10.456Zm-.083,4.789c2.9,0,4.048,2.17,4.048,4.639v2.123c0,2.992-1.607,4.722-4.059,4.722-2.293,0-3.9-1.619-3.9-4.722V19.726c0-3.31,1.917-4.639,3.915-4.639Zm22.2-4.789c-6.593,0-10.064,3.715-10.064,10.373,0,9.135,5.983,10.606,10.075,10.606,5.99,0,9.975-3.225,9.975-10.523,0-7.6-4.481-10.456-9.986-10.456Zm-.083,4.789c2.9,0,4.048,2.17,4.048,4.639v2.123c0,2.992-1.607,4.722-4.059,4.722-2.293,0-3.9-1.619-3.9-4.722V19.726c0-3.31,1.917-4.639,3.915-4.639Zm12.37,15.785V.613l6.1-.531V20.363L155.31,10.7h6.447l-6.318,10.009L162,30.871h-6.465L149.253,21v9.868Z" fill="#5d5d5d"/></svg>