<svg xmlns="http://www.w3.org/2000/svg" xmlns:xlink="http://www.w3.org/1999/xlink" width="100.655" height="100.655" viewBox="0 0 100.655 100.655"><defs><filter id="a" x="0" y="0" width="100.655" height="100.655" filterUnits="userSpaceOnUse"><feOffset dy="10" input="SourceAlpha"/><feGaussianBlur stdDeviation="10" result="b"/><feFlood flood-color="#7e76f9" flood-opacity="0.161"/><feComposite operator="in" in2="b"/><feComposite in="SourceGraphic"/></filter></defs><g transform="translate(-733 -605)"><g transform="matrix(1, 0, 0, 1, 733, 605)" filter="url(#a)"><circle cx="20.328" cy="20.328" r="20.328" transform="translate(30 20)" fill="#fff"/></g><g transform="translate(776.278 634.958)"><g transform="translate(0)"><path d="M42.05,0a6.987,6.987,0,0,0-6.981,6.978v6.988a6.981,6.981,0,0,0,13.962,0V6.978A6.987,6.987,0,0,0,42.05,0Zm6.205,13.966a6.205,6.205,0,0,1-12.411,0V6.978a6.205,6.205,0,0,1,12.411,0Z" transform="translate(-35.069 0)" fill="#7e76f9"/><path d="M101.7,23.379a.388.388,0,0,0-.388.388v3.512a.388.388,0,1,0,.776,0V23.767A.388.388,0,0,0,101.7,23.379Z" transform="translate(-94.717 -21.052)" fill="#7e76f9"/></g></g></g></svg>