<svg xmlns="http://www.w3.org/2000/svg" width="692" height="499.876" viewBox="0 0 692 499.876"><g transform="translate(0 0)"><path d="M945,696.1H255a1,1,0,0,1,0-2H945a1,1,0,0,1,0,2Z" transform="translate(-254 -200.062)" fill="#ccc"/><path d="M876.7,521.7h-406a6.5,6.5,0,0,0,0,13h11.5V690.2a6.5,6.5,0,0,0,13,0l.1-155.5H851.2V690.2a6.5,6.5,0,0,0,13,0V538.13L866.1,534.7H876.7a6.5,6.5,0,0,0,0-13Z" transform="translate(-254 -200.062)" fill="#ccc"/><path d="M695.794,525.1H572.812a8.992,8.992,0,0,1-8.982-8.982V448.414a8.992,8.992,0,0,1,8.982-8.982H695.794a8.992,8.992,0,0,1,8.982,8.982v67.709a8.992,8.992,0,0,1-8.982,8.982Z" transform="translate(-254 -200.062)" fill="#3f3d56"/><path d="M695.793,446.345H572.813a2.074,2.074,0,0,0-2.07,2.07v67.71a2.074,2.074,0,0,0,2.07,2.07h122.98a2.074,2.074,0,0,0,2.07-2.07v-67.71a2.074,2.074,0,0,0-2.07-2.07Z" transform="translate(-254 -200.062)" fill="#fff"/><path d="M644.792,494.283s-14.722-3.392-22.82,2.827,10.306,20.355,10.306,20.355Z" transform="translate(-254 -200.062)" fill="#2f2e41"/><circle cx="13.887" cy="13.887" r="13.887" transform="translate(367.137 260.037)" fill="#a0616a"/><path d="M624.286,454.492a9.9,9.9,0,0,1,9.126-4.856,19.4,19.4,0,0,1,5.516,1.544l9.078,3.541c2.349.916,4.922,2.039,5.941,4.345.946,2.141.24,4.613-.474,6.841l-3.4,10.593a32.245,32.245,0,0,0-1.925-7,10.835,10.835,0,0,0-4.7-5.364c-2.358-1.21-5.137-1.185-7.785-1.057-3.749.18-7.826.657-10.489,3.3a10.9,10.9,0,0,0-2.765,5.4,32.505,32.505,0,0,0-.58,6.112,50.668,50.668,0,0,1-3.869-8.3,20.524,20.524,0,0,1-1.438-6.715,9.444,9.444,0,0,1,2.165-6.387,6.2,6.2,0,0,1,6.231-1.961Z" transform="translate(-254 -200.062)" fill="#2f2e41"/><path d="M668.183,506.325a2.472,2.472,0,0,0-2.07-1.79.856.856,0,0,0-.1-.06l-20.731-11.618a2.637,2.637,0,0,0-3.528.908l-5.67,9.18-8.54-8.54-.136-.136a2.637,2.637,0,0,0-3.377-.3l-17.038,11.931c-.03,0-.06.01-.09.01a3.633,3.633,0,0,0-3.03,3.39l-.44,8.89h68.04Z" transform="translate(-254 -200.062)" fill="#112e41"/><path d="M706.158,516.814H693.03a1.382,1.382,0,0,0-1.382-1.382H687.5a1.382,1.382,0,0,0-1.382,1.382h-4.145a1.382,1.382,0,0,0-1.382-1.382h-4.145a1.382,1.382,0,0,0-1.382,1.382h-4.145a1.382,1.382,0,0,0-1.382-1.382h-4.146a1.382,1.382,0,0,0-1.382,1.382h-4.145a1.382,1.382,0,0,0-1.382-1.382H654.34a1.382,1.382,0,0,0-1.382,1.382h-4.145a1.382,1.382,0,0,0-1.382-1.382h-4.145a1.382,1.382,0,0,0-1.382,1.382h-4.145a1.382,1.382,0,0,0-1.382-1.382h-4.145a1.382,1.382,0,0,0-1.382,1.382H626.7a1.382,1.382,0,0,0-1.382-1.382h-4.146a1.382,1.382,0,0,0-1.382,1.382h-4.145a1.382,1.382,0,0,0-1.382-1.382h-4.145a1.382,1.382,0,0,0-1.382,1.382h-4.146a1.382,1.382,0,0,0-1.382-1.382h-4.145a1.382,1.382,0,0,0-1.382,1.382H593.54a1.382,1.382,0,0,0-1.382-1.382h-4.145a1.382,1.382,0,0,0-1.382,1.382h-4.146a1.382,1.382,0,0,0-1.382-1.382h-4.145a1.382,1.382,0,0,0-1.382,1.382H562.449a4.145,4.145,0,0,0,0,8.291H706.158a4.145,4.145,0,0,0,0-8.291Z" transform="translate(-254 -200.062)" fill="#3f3d56"/><path d="M541.079,492.74v27.526H472.117a13.771,13.771,0,1,1,0-27.526Z" transform="translate(-254 -200.062)" fill="#f2f2f2"/><path d="M542.773,520.054a1.059,1.059,0,0,1-1.059,1.059H470.889a14.5,14.5,0,0,1,0-29.008h70.826a1.059,1.059,0,0,1,0,2.117H470.889a12.387,12.387,0,1,0,0,24.773h70.826A1.059,1.059,0,0,1,542.773,520.054Z" transform="translate(-254 -200.062)" fill="#8038c5"/><path d="M541.079,499.092H466.971a.212.212,0,1,1,0-.423h74.108a.212.212,0,0,1,0,.423Z" transform="translate(-254 -200.062)" fill="#ccc"/><path d="M541.079,504.174H466.971a.212.212,0,1,1,0-.423h74.108a.212.212,0,0,1,0,.423Z" transform="translate(-254 -200.062)" fill="#ccc"/><path d="M541.079,509.255H466.971a.212.212,0,0,1,0-.423h74.108a.212.212,0,1,1,0,.423Z" transform="translate(-254 -200.062)" fill="#ccc"/><path d="M541.079,514.337H466.971a.212.212,0,1,1,0-.423h74.108a.212.212,0,0,1,0,.423Z" transform="translate(-254 -200.062)" fill="#ccc"/><path d="M528.079,463.74v27.526H459.117a13.771,13.771,0,1,1,0-27.526Z" transform="translate(-254 -200.062)" fill="#f2f2f2"/><path d="M529.773,491.054a1.059,1.059,0,0,1-1.059,1.059H457.889a14.5,14.5,0,0,1,0-29.008h70.826a1.059,1.059,0,0,1,0,2.117H457.889a12.387,12.387,0,1,0,0,24.773h70.826A1.059,1.059,0,0,1,529.773,491.054Z" transform="translate(-254 -200.062)" fill="#3f3d56"/><path d="M528.079,470.092H453.971a.212.212,0,1,1,0-.423h74.108a.212.212,0,0,1,0,.423Z" transform="translate(-254 -200.062)" fill="#ccc"/><path d="M528.079,475.174H453.971a.212.212,0,1,1,0-.423h74.108a.212.212,0,0,1,0,.423Z" transform="translate(-254 -200.062)" fill="#ccc"/><path d="M528.079,480.255H453.971a.212.212,0,1,1,0-.423h74.108a.212.212,0,1,1,0,.423Z" transform="translate(-254 -200.062)" fill="#ccc"/><path d="M528.079,485.337H453.971a.212.212,0,1,1,0-.423h74.108a.212.212,0,0,1,0,.423Z" transform="translate(-254 -200.062)" fill="#ccc"/><path d="M608.3,618.1v-24a4,4,0,0,0-4-4h-91a4,4,0,0,0-4,4v24Z" transform="translate(-254 -200.062)" fill="#ccc"/><rect width="99" height="31" transform="translate(255.303 427.043)" fill="#ccc"/><path d="M509.3,667.1v24a4,4,0,0,0,4,4h91a4,4,0,0,0,4-4v-24Z" transform="translate(-254 -200.062)" fill="#ccc"/><circle cx="3" cy="3" r="3" transform="translate(301.303 402.043)" fill="#fff"/><circle cx="3" cy="3" r="3" transform="translate(301.303 442.043)" fill="#fff"/><circle cx="3" cy="3" r="3" transform="translate(301.464 481.196)" fill="#fff"/><path d="M597.079,562.74v27.526H528.117a13.771,13.771,0,1,1,0-27.526Z" transform="translate(-254 -200.062)" fill="#f2f2f2"/><path d="M598.773,590.054a1.059,1.059,0,0,1-1.059,1.059H526.889a14.5,14.5,0,0,1,0-29.008h70.826a1.059,1.059,0,0,1,0,2.117H526.889a12.387,12.387,0,1,0,0,24.773h70.826a1.059,1.059,0,0,1,1.059,1.059Z" transform="translate(-254 -200.062)" fill="#3f3d56"/><path d="M597.079,569.092H522.971a.212.212,0,1,1,0-.423h74.108a.212.212,0,0,1,0,.423Z" transform="translate(-254 -200.062)" fill="#ccc"/><path d="M597.079,574.174H522.971a.212.212,0,1,1,0-.423h74.108a.212.212,0,0,1,0,.423Z" transform="translate(-254 -200.062)" fill="#ccc"/><path d="M597.079,579.255H522.971a.212.212,0,1,1,0-.423h74.108a.212.212,0,0,1,0,.423Z" transform="translate(-254 -200.062)" fill="#ccc"/><path d="M597.079,584.337H522.971a.212.212,0,1,1,0-.423h74.108a.212.212,0,0,1,0,.423Z" transform="translate(-254 -200.062)" fill="#ccc"/><path d="M504.11,383.083v-175.5a7.53,7.53,0,0,1,7.521-7.521H650.36a7.53,7.53,0,0,1,7.521,7.521v175.5a7.53,7.53,0,0,1-7.521,7.521H511.632a7.53,7.53,0,0,1-7.522-7.521Zm7.521-181.35a5.857,5.857,0,0,0-5.85,5.85v175.5a5.857,5.857,0,0,0,5.85,5.85H650.36a5.857,5.857,0,0,0,5.85-5.85v-175.5a5.857,5.857,0,0,0-5.85-5.85Z" transform="translate(-254 -200.062)" fill="#e6e6e6"/><path d="M588.776,280.659V244.624a3.765,3.765,0,0,1,3.761-3.761h30.537a3.765,3.765,0,0,1,3.761,3.761V280.66a3.765,3.765,0,0,1-3.761,3.761H592.537a3.765,3.765,0,0,1-3.761-3.761Z" transform="translate(-254 -200.062)" fill="#8038c5"/><path d="M529.44,297.374V261.338a3.765,3.765,0,0,1,3.761-3.761h30.537a3.765,3.765,0,0,1,3.761,3.761v36.036a3.765,3.765,0,0,1-3.761,3.761H533.2a3.765,3.765,0,0,1-3.761-3.76Z" transform="translate(-254 -200.062)" fill="#ccc"/><path d="M577.076,348.352V312.317a3.765,3.765,0,0,1,3.761-3.761h30.537a3.765,3.765,0,0,1,3.761,3.761v36.036a3.765,3.765,0,0,1-3.761,3.761H580.837A3.765,3.765,0,0,1,577.076,348.352Z" transform="translate(-254 -200.062)" fill="#ff1481"/><path d="M759.563,513.1h-31.42a1.942,1.942,0,0,0-.86.2l-7.93,3.97a1.445,1.445,0,0,0,0,2.66l7.93,3.97a1.941,1.941,0,0,0,.86.2h31.42a1.649,1.649,0,0,0,1.74-1.53v-7.94A1.649,1.649,0,0,0,759.563,513.1Z" transform="translate(-254 -200.062)" fill="#3f3d56"/><path d="M761.3,514.635v7.94a1.649,1.649,0,0,1-1.74,1.53H753.3v-11h6.26a1.649,1.649,0,0,1,1.74,1.53Z" transform="translate(-254 -200.062)" fill="#6c63ff"/><path d="M759.326,453.7a11,11,0,0,1,14.891,6.915,10.572,10.572,0,0,1,.32,1.435l43.938,21.788,10.168-6.739,12.652,14.565-15.526,12.609a11.149,11.149,0,0,1-13.3.513l-44.579-30.828a10.5,10.5,0,0,1-1.015.37,11,11,0,0,1-14.01-8.561,10.706,10.706,0,0,1-.163-1.34,11.036,11.036,0,0,1,6.626-10.729Z" transform="translate(-254 -200.062)" fill="#ffb8b8"/><path d="M850.841,587.853h-48.01c0,1.38-49.48,2.5-49.48,2.5a12.861,12.861,0,0,0-2.11,2,12.41,12.41,0,0,0-2.9,8v2a12.5,12.5,0,0,0,12.5,12.5h90a12.511,12.511,0,0,0,12.5-12.5v-2A12.517,12.517,0,0,0,850.841,587.853Z" transform="translate(-254 -200.062)" fill="#3f3d56"/><rect width="13" height="84" transform="translate(557.618 498.295) rotate(180)" fill="#3f3d56"/><path d="M761.617,697.9c0,1.4,19.7.543,44,.543s44,.861,44-.543-19.7-12.543-44-12.543S761.617,696.495,761.617,697.9Z" transform="translate(-254 -200.062)" fill="#3f3d56"/><path d="M519.353,487.993H507.094l-5.833-31.8h18.094Z" fill="#ffb8b8"/><path d="M776.48,699.938H736.949v-.5a15.386,15.386,0,0,1,15.387-15.386h24.145Z" transform="translate(-254 -200.062)" fill="#2f2e41"/><path d="M755.017,668.337l-24.441-54.808a20.086,20.086,0,0,1,8.819-25.784l53.013-28.428L816.6,557.26l22.315-2.028.161.272c.206.348,5,8.635,1.76,17.722-2.46,6.893-8.859,12.276-19.019,16-23.714,8.7-51.109,16.127-61.786,18.918a3.451,3.451,0,0,0-2.211,1.76,3.5,3.5,0,0,0-.2,2.8l22.706,51.015a4.5,4.5,0,0,1-3.809,6.029l-16.967,1.235q-.216.021-.43.021a4.5,4.5,0,0,1-4.106-2.667Z" transform="translate(-254 -200.062)" fill="#2f2e41"/><path d="M525.353,487.993H513.094l-5.833-31.8h18.094Z" fill="#ffb8b8"/><path d="M782.48,699.938H742.949v-.5a15.386,15.386,0,0,1,15.387-15.386h24.145Z" transform="translate(-254 -200.062)" fill="#2f2e41"/><path d="M762.017,671.337l-24.441-54.808a20.086,20.086,0,0,1,8.819-25.784l53.013-28.428L823.6,560.26l22.315-2.028.161.272c.206.348,5,8.635,1.76,17.722-2.46,6.893-8.859,12.276-19.019,16-23.714,8.7-51.109,16.127-61.786,18.918a3.451,3.451,0,0,0-2.211,1.76,3.5,3.5,0,0,0-.2,2.8l22.706,51.015a4.5,4.5,0,0,1-3.809,6.029l-16.967,1.235q-.216.021-.43.021A4.5,4.5,0,0,1,762.017,671.337Z" transform="translate(-254 -200.062)" fill="#2f2e41"/><path d="M749.835,503.906a167.5,167.5,0,0,1-24.075-44.932,4.3,4.3,0,0,1,2.032-5.179l35.145-18.832a4.247,4.247,0,0,1,3.726-.151,4.319,4.319,0,0,1,2.461,2.884,102.327,102.327,0,0,0,22.446,41.891,4.318,4.318,0,0,1,1.038,3.647,4.247,4.247,0,0,1-2.189,3.018l-35.146,18.832a4.3,4.3,0,0,1-5.437-1.177Z" transform="translate(-254 -200.062)" fill="#ccc"/><path d="M752.233,502.1a1.3,1.3,0,0,0,1.622.335L789,483.607a1.246,1.246,0,0,0,.653-.9,1.318,1.318,0,0,0-.325-1.128,105.341,105.341,0,0,1-23.107-43.125,1.319,1.319,0,0,0-.758-.895,1.247,1.247,0,0,0-1.11.046l-35.145,18.831a1.3,1.3,0,0,0-.62,1.537A164.507,164.507,0,0,0,752.233,502.1Z" transform="translate(-254 -200.062)" fill="#fff"/><path d="M866.593,498.883l-27.525,10.459-6.72-18.667a11.168,11.168,0,0,1,5-13.5h0a11.168,11.168,0,0,1,14.263,2.784Z" transform="translate(-254 -200.062)" fill="#6c63ff"/><path d="M796.583,572.843a5,5,0,0,1-2.083-3.549c-3.525-32.91-1.07-58.664,7.506-78.735a24.992,24.992,0,0,1,16.567-14.18l22.249-1.123.115.056A26.005,26.005,0,0,1,855.156,502.9c-7.156,18.863-13.148,38.5-8.579,54.346a5.122,5.122,0,0,1-.484,3.983,4.884,4.884,0,0,1-3.116,2.309L800.6,573.62a4.964,4.964,0,0,1-4.017-.777Z" transform="translate(-254 -200.062)" fill="#8038c5"/><circle cx="24.561" cy="24.561" r="24.561" transform="translate(554.835 217.762)" fill="#ffb8b8"/><path d="M765.243,461.838l-19.142,8.45a3,3,0,0,1-3.956-1.533l-.473-1.073a3,3,0,0,1,1.533-3.956l19.142-8.45a3,3,0,0,1,3.956,1.533l.473,1.072a3,3,0,0,1-1.533,3.956Z" transform="translate(-254 -200.062)" fill="#ccc"/><path d="M772.243,474.838l-19.142,8.45a3,3,0,0,1-3.956-1.533l-.473-1.073a3,3,0,0,1,1.533-3.956l19.142-8.45a3,3,0,0,1,3.956,1.533l.473,1.072a3,3,0,0,1-1.533,3.956Z" transform="translate(-254 -200.062)" fill="#ccc"/><path d="M787.005,525.615l-42.674-33.666a10.517,10.517,0,0,1-1.036.306,11.027,11.027,0,0,1-8.818-1.691,10.913,10.913,0,0,1-4.627-7.733,11,11,0,0,1,21.635-3.8,10.573,10.573,0,0,1,.229,1.452L794.2,504.989l10.572-6.086,11.711,15.332-16.414,11.7a10.942,10.942,0,0,1-13.06-.318Z" transform="translate(-254 -200.062)" fill="#ffb8b8"/><path d="M821.686,519.009l-24.349-16.557,11.443-16.207a11.168,11.168,0,0,1,13.929-3.64h0a11.168,11.168,0,0,1,5.894,13.283Z" transform="translate(-254 -200.062)" fill="#8038c5"/><path d="M824.391,438.727c-6.313,4.32-14.6,8.762-21.049,4.161-4.234-3.021-5.567-8.615-3.851-13.525,3.087-8.829,11.569-12.715,19.68-15.695,10.544-3.873,22.026-6.954,32.911-4.181s20.506,13.313,18.541,24.373c-1.58,8.894-9.97,16.295-8.779,25.25,1.2,9.012,11.334,13.756,20.281,15.367s18.96,2.128,25.391,8.555c8.2,8.2,6.155,22.853-1.564,31.51s-19.367,12.58-30.654,15.248c-14.955,3.534-31.129,5.392-45.332-.474s-25.256-21.654-21.141-36.46c1.738-6.254,5.832-11.539,9.789-16.685s7.963-10.526,9.472-16.839c1.258-5.261.327-11.369-3.162-15.315a4.437,4.437,0,0,1-.594-5.186Z" transform="translate(-254 -200.062)" fill="#2f2e41"/><path d="M363.072,558.06a39.063,39.063,0,0,1-37.721-6.645C312.139,540.326,308,522.057,304.626,505.14L294.657,455.1l20.872,14.371c15.01,10.335,30.357,21,40.75,35.971s14.929,35.405,6.579,51.6" transform="translate(-254 -200.062)" fill="#e6e6e6"/><path d="M361.288,618.639c2.112-15.388,4.285-30.972,2.8-46.525-1.316-13.812-5.53-27.3-14.109-38.364a63.822,63.822,0,0,0-16.374-14.838c-1.637-1.034-3.144,1.561-1.514,2.59a60.671,60.671,0,0,1,24,28.957c5.225,13.29,6.064,27.776,5.164,41.893-.544,8.537-1.7,17.018-2.861,25.489a1.554,1.554,0,0,0,1.048,1.845,1.509,1.509,0,0,0,1.845-1.048Z" transform="translate(-254 -200.062)" fill="#f2f2f2"/><path d="M340.941,591.41a28.755,28.755,0,0,1-25.055,12.931c-12.683-.6-23.257-9.454-32.775-17.858l-28.153-24.857,18.633-.892c13.4-.641,27.145-1.239,39.908,2.893s24.533,14.077,26.867,27.287" transform="translate(-254 -200.062)" fill="#e6e6e6"/><path d="M367.258,627.484C357.09,609.493,345.3,589.5,324.223,583.107a48.023,48.023,0,0,0-18.1-1.869c-1.922.166-1.442,3.128.476,2.963a44.614,44.614,0,0,1,28.887,7.642c8.145,5.544,14.487,13.252,19.854,21.425,3.288,5.007,6.233,10.226,9.178,15.438C365.459,630.371,368.21,629.169,367.258,627.484Z" transform="translate(-254 -200.062)" fill="#f2f2f2"/><path d="M383.55,646.421a21.774,21.774,0,0,0-13.343-18.237v-10.4H352.762v10.729a21.763,21.763,0,0,0-12.616,17.909l-4.1,47.684h51.608Z" transform="translate(-254 -200.062)" fill="#f2f2f2"/></g></svg>