<svg xmlns="http://www.w3.org/2000/svg" width="631.575" height="393.582" viewBox="0 0 631.575 393.582"><circle cx="143.002" cy="143.002" r="143.002" transform="translate(337.127 64.181)" fill="#f2f2f2"/><circle cx="54.611" cy="54.611" r="54.611" transform="translate(22.974)" fill="#ff1481"/><circle cx="143.002" cy="143.002" r="143.002" transform="translate(32.545 7.318)" fill="#f2f2f2"/><ellipse cx="157.076" cy="8.445" rx="157.076" ry="8.445" transform="translate(11.714 284.314)" fill="#3f3d56"/><ellipse cx="117.667" cy="5.824" rx="117.667" ry="5.824" transform="translate(19.596 287.226)" opacity="0.1"/><ellipse cx="157.076" cy="9.289" rx="157.076" ry="9.289" transform="translate(317.422 342.303)" fill="#3f3d56"/><ellipse cx="117.667" cy="6.407" rx="117.667" ry="6.407" transform="translate(325.304 345.506)" opacity="0.1"/><ellipse cx="100.238" cy="5.067" rx="100.238" ry="5.067" transform="translate(125.47 324.85)" fill="#3f3d56"/><ellipse cx="48.363" cy="2.445" rx="48.363" ry="2.445" transform="translate(0 310.582)" fill="#3f3d56"/><ellipse cx="90.012" cy="4.55" rx="90.012" ry="4.55" transform="translate(446.485 384.482)" fill="#3f3d56"/><rect width="180.159" height="106.97" transform="translate(346.698 243.778)" fill="#3f3d56"/><path d="M40.536,0A40.536,40.536,0,1,1,0,40.536,40.536,40.536,0,0,1,40.536,0Z" transform="translate(364.151 257.853)" fill="#8038c5"/><rect width="13.512" height="13.512" transform="translate(457.608 260.668)" fill="#8038c5"/><path d="M0,0H13.512V13.512H0Z" transform="translate(474.498 260.668)" fill="#8038c5" opacity="0.5"/><rect width="13.512" height="13.512" transform="translate(491.388 260.668)" fill="#8038c5" opacity="0.2"/><rect width="13.512" height="13.512" transform="translate(457.608 277.558)" fill="#2f2e41"/><rect width="13.512" height="13.512" transform="translate(474.498 277.558)" fill="#2f2e41" opacity="0.5"/><rect width="13.512" height="13.512" transform="translate(491.388 277.558)" fill="#2f2e41" opacity="0.2"/><rect width="13.512" height="13.512" transform="translate(457.608 294.448)" fill="#ff1481"/><rect width="13.512" height="13.512" transform="translate(474.498 294.448)" fill="#ff1481" opacity="0.5"/><rect width="13.512" height="13.512" transform="translate(491.388 294.448)" fill="#ff1481" opacity="0.2"/><path d="M757.9,558.459v81.072c22.387,0,41.662-18.148,41.662-40.536S780.29,558.459,757.9,558.459Z" transform="translate(-353.217 -300.606)" fill="#3f3d56" opacity="0.5"/><path d="M1017.555,546.959s23.646,10.7,15.2,23.083-33.78,36.032-34.343,41.1a22.5,22.5,0,0,1-3.941,9.571s-11.26-11.823-10.134-12.949,12.386-11.823,12.949-14.638,17.453-24.772,17.453-24.772l-15.2-13.512Z" transform="translate(-452.135 -295.58)" fill="#ffb9b9"/><path d="M1017.555,546.959s23.646,10.7,15.2,23.083-33.78,36.032-34.343,41.1a22.5,22.5,0,0,1-3.941,9.571s-11.26-11.823-10.134-12.949,12.386-11.823,12.949-14.638,17.453-24.772,17.453-24.772l-15.2-13.512Z" transform="translate(-452.135 -295.58)" opacity="0.1"/><path d="M990.4,582.4s16.327,6.756,15.2,17.453,19.705,41.1,19.705,41.1,2.252,7.319,1.689,9.571,14.638,1.689,14.638,1.689v-5.067s-11.823-20.268-12.949-25.9-7.882-27.587-7.882-27.587-2.252-19.7-13.512-19.7A21.112,21.112,0,0,0,990.4,582.4Z" transform="translate(-454.819 -307.379)" fill="#ffb9b9"/><path d="M983.872,498.459s33.78,27.587,32.654,29.839-17.453,10.7-20.268,11.26-22.733-41.1-22.733-41.1Z" transform="translate(-447.444 -274.386)" fill="#2f2e41"/><path d="M983.872,498.459s33.78,27.587,32.654,29.839-17.453,10.7-20.268,11.26-22.733-41.1-22.733-41.1Z" transform="translate(-447.444 -274.386)" opacity="0.1"/><path d="M926.421,503.6s-3.378,15.2,5.63,21.394,24.209,30.4,25.9,30.4,25.9-12.949,24.772-15.2-13.512-21.957-13.512-21.957l-3.941-20.831S930.925,496.285,926.421,503.6Z" transform="translate(-426.588 -273.9)" fill="#2f2e41"/><path d="M991.9,420.459l5.067,32.654,9.008,23.083s13.512,14.075,5.63,15.2-12.386-15.2-12.386-15.2L991.9,462.684Z" transform="translate(-455.475 -240.3)" fill="#ffb9b9"/><path d="M991.9,420.459l5.067,32.654,9.008,23.083s13.512,14.075,5.63,15.2-12.386-15.2-12.386-15.2L991.9,462.684Z" transform="translate(-455.475 -240.3)" opacity="0.1"/><path d="M954.94,355.959s0,11.823-3.941,12.949,15.764,16.327,15.764,16.327-2.252-19.7,5.63-24.772Z" transform="translate(-437.372 -212.113)" fill="#ffb9b9"/><path d="M954.94,355.959s0,11.823-3.941,12.949,15.764,16.327,15.764,16.327-2.252-19.7,5.63-24.772Z" transform="translate(-437.372 -212.113)" opacity="0.1"/><circle cx="12.949" cy="12.949" r="12.949" transform="translate(513.627 127.519)" fill="#ffb9b9"/><path d="M951.092,387.022s-11.823-14.638-13.512-14.075-14.075,12.949-15.2,16.89S919,421.928,920.69,427.558s1.689,20.268,1.126,21.394-3.941,3.941-.563,3.941,15.2-8.445,23.083-6.756,18.579-.563,19.142-1.689-.563-30.4,0-32.654-1.126-13.512-1.689-15.764-.563-11.26-6.193-13.512l-2.4-.237-.134,5.569Z" transform="translate(-423.954 -219.53)" fill="#8038c5"/><path d="M931.4,449.959s1.126,17.453,9.571,24.772,26.461,19.7,27.587,21.957,11.823,14.075,14.075,9.008a8.424,8.424,0,0,0,.451-4.992,12.416,12.416,0,0,0-5.576-8.114l-5.01-3.221-24.772-25.9L946.6,449.959Z" transform="translate(-429.036 -253.191)" fill="#ffb9b9"/><path d="M981.64,651.269s-6.474-1.407-8.726,2.534,2.252,14.638,2.252,14.638,12.949,27.024,15.2,23.646-1.689-15.764-1.689-15.764,5.63-12.386,3.378-12.949S981.64,658.025,981.64,651.269Z" transform="translate(-446.901 -341.057)" fill="#2f2e41"/><path d="M1054.879,705.463s-3.378-1.689-3.941,0-3.941,10.134,0,11.26,42.788,2.252,41.662,0-7.319-5.067-11.26-6.193-14.075-9.571-14.075-9.571S1061.635,708.278,1054.879,705.463Z" transform="translate(-480.45 -362.879)" fill="#2f2e41"/><path d="M973.194,321.11a3.468,3.468,0,0,0-1.5-1.963,7.959,7.959,0,0,0-.318-2.591c-.827-2.446-2.787-2.306-4.637-3.387-.8-.469-.753-.884-1.17-1.654A6.14,6.14,0,0,0,963.2,309.1a8.513,8.513,0,0,0-3.842-1.63c-2.95-.2-5.211,2.573-8.03,3.464-1.243.392-2.578.409-3.827.78a3.52,3.52,0,0,0-2.682,2.547c-.086.6.066,1.206-.021,1.8-.173,1.183-1.211,2.012-1.906,2.985a7.353,7.353,0,0,0-.132,7.533,10.582,10.582,0,0,0,.886,1.387,8.529,8.529,0,0,0,.936,3.167,15.786,15.786,0,0,0,5.552,5.544,13.109,13.109,0,0,1-.328-2.364,1.63,1.63,0,0,1,.1-.783c.246-.514.9-.651,1.392-.933a3.517,3.517,0,0,0,1.459-3.054c.03-1.18-.22-2.362-.1-3.537a1.933,1.933,0,0,1,.661-1.421,2.285,2.285,0,0,1,1.247-.3c2.1-.086,4.3-.124,6.156-1.119a9.122,9.122,0,0,1,1.916-.969c1.576-.411,3.188.694,4.1,2.046s1.362,2.962,2.2,4.359,2.286,2.643,3.907,2.477a.649.649,0,0,0,.484-.215.725.725,0,0,0,.089-.412l.091-6.2a9.365,9.365,0,0,0-.312-3.149Z" transform="translate(-433.575 -190.919)" fill="#2f2e41"/><path d="M933.254,398.959s12.386,5.63,11.823,17.453,3.378,12.949-6.193,14.075-11.823,0-12.386,1.126-3.941-25.9-1.689-28.713S933.254,398.959,933.254,398.959Z" transform="translate(-425.82 -230.904)" fill="#8038c5"/><circle cx="18.016" cy="18.016" r="18.016" transform="translate(240.291 36.595)" fill="#2f2e41"/><path d="M507.658,547.959l-10.134,27.587s-8.445,6.756-3.378,9.008,15.2-2.252,15.2-2.252l7.882-20.268L516.1,547.959Z" transform="translate(-237.247 -296.017)" fill="#2f2e41"/><path d="M507.658,547.959l-10.134,27.587s-8.445,6.756-3.378,9.008,15.2-2.252,15.2-2.252l7.882-20.268L516.1,547.959Z" transform="translate(-237.247 -296.017)" opacity="0.1"/><path d="M517.935,257.459l8.445,1.126s3.941,30.965,2.252,33.217-10.134,11.26-13.512,9.008S517.935,257.459,517.935,257.459Z" transform="translate(-246.68 -169.068)" fill="#575a89"/><path d="M363.759,357.959s-11.823,5.067-14.075,5.63-5.63,6.193-1.689,7.319,19.142-10.134,19.142-10.134Z" transform="translate(-173.293 -212.987)" fill="#a0616a"/><path d="M526.4,565.009l6.193,23.083s.563,8.445,3.378,9.008,11.26-2.815,11.26-3.941-3.378-10.134-3.378-10.134,0-6.756-3.378-9.571-6.421-12.245-6.421-12.245Z" transform="translate(-252.051 -301.808)" fill="#2f2e41"/><path d="M521.612,433.318c1.137,2.652,1,21.889-.248,34.692-.6,6.221-1.464,10.922-2.567,11.474l-8.068-2.016-3.192-.8-.084-7-.479-38.6L497.4,391.093V380.959l24.209,2.252,3.84,6.03.1.163S519.923,429.377,521.612,433.318Z" transform="translate(-239.378 -223.038)" fill="#2f2e41"/><path d="M516.545,445.7c1.2,1.807,3.215,12.628,4.819,22.306-.6,6.221-1.464,10.922-2.567,11.474l-8.068-2.016c-.124-.259-.248-.529-.377-.8-1.03-2.162-2-4.549-2.9-7l-.479-38.6L497.4,391.093V380.959l24.209,2.252,3.84,6.03-22.419-1.526,5.067,21.957,6.193,23.083S514.293,442.326,516.545,445.7Z" transform="translate(-239.378 -223.038)" opacity="0.1"/><path d="M458.321,335.278s-7.882,17.453,3.378,41.662a492.1,492.1,0,0,1,18.579,46.166s3.941,18.579,9.571,30.4,4.5,12.386,4.5,12.386l9.008-5.067s-5.067-34.906-7.319-38.284-2.252-12.949-2.252-12.949L487.6,386.511l-5.067-21.957,24.772,1.689s0-32.091-11.26-38.284Z" transform="translate(-221.127 -199.877)" fill="#2f2e41"/><path d="M466.747,212.459s0,9.008-2.815,9.571-8.445.563-10.134,3.378,12.949,39.973,12.949,39.973l15.2-9.571,5.067-25.335s-7.319-4.5-7.319-6.756V213.585Z" transform="translate(-220.263 -149.403)" fill="#a0616a"/><path d="M466.747,212.459s0,9.008-2.815,9.571-8.445.563-10.134,3.378,12.949,39.973,12.949,39.973l15.2-9.571,5.067-25.335s-7.319-4.5-7.319-6.756V213.585Z" transform="translate(-220.263 -149.403)" opacity="0.1"/><circle cx="13.512" cy="13.512" r="13.512" transform="translate(241.699 45.884)" fill="#a0616a"/><path d="M457.179,261.55s-5.067-32.091-6.193-32.091-16.89,3.378-18.016,3.941-5.067,5.63-5.067,5.63l7.882,22.52s3.378,15.764,5.63,18.579,6.756,10.7,4.5,11.823-4.5,2.815-2.252,2.815,20.831-3.378,21.957-1.689,19.7-6.193,19.7-6.756-2.252-27.024-2.252-27.024l5.63-12.949-16.89-11.823Z" transform="translate(-209.006 -156.832)" fill="#575a89"/><path d="M409.935,241.459l-5.63,2.815s-15.764,36.032-16.89,36.595-6.756,11.26-7.319,13.512-1.689,9.571-3.378,10.7a29.254,29.254,0,0,1-2.815,1.689s3.378,5.63,5.067,5.63,7.319-7.882,7.319-7.882,12.386,7.882,15.764,1.689,11.823-45.6,11.823-45.6Z" transform="translate(-185.408 -162.076)" fill="#575a89"/><path d="M505.749,258.706s-7.882-19.142-12.386-16.89,3.378,15.764,8.445,18.016Z" transform="translate(-237.027 -162.152)" fill="#a0616a"/><path d="M498.716,271.573l7.9-1.786,1.672,8.542s7.319,12.949,5.63,18.579-11.823,14.638-15.2,9.571-6.193-12.949-3.941-17.453S500.4,273.825,498.716,271.573Z" transform="translate(-237.875 -174.456)" opacity="0.1"/><path d="M501.716,269.573l7.9-1.786,1.672,8.542s7.319,12.949,5.63,18.579-11.823,14.638-15.2,9.571-6.193-12.949-3.941-17.453S503.4,271.825,501.716,269.573Z" transform="translate(-239.186 -173.582)" fill="#575a89"/><ellipse cx="6.474" cy="13.512" rx="6.474" ry="13.512" transform="translate(243.887 51.082) rotate(-64.899)" fill="#2f2e41"/><circle cx="7.882" cy="7.882" r="7.882" transform="translate(261.122 31.528)" fill="#2f2e41"/><path d="M502.582,159.341a7.882,7.882,0,0,1,7.036-7.835,7.882,7.882,0,1,0,0,15.671A7.882,7.882,0,0,1,502.582,159.341Z" transform="translate(-240.898 -122.746)" fill="#2f2e41"/><rect width="197.049" height="136.809" transform="translate(36.486 155.951)" fill="#3f3d56"/><rect width="25.898" height="25.898" transform="translate(52.25 169.462)" fill="#f2f2f2"/><path d="M0,0H25.9V25.9H0Z" transform="translate(52.25 211.687)" fill="#8038c5"/><rect width="25.898" height="25.898" transform="translate(52.25 253.912)" fill="#f2f2f2"/><rect width="123.297" height="2.252" transform="translate(90.533 177.626)" fill="#f2f2f2"/><rect width="38.284" height="2.252" transform="translate(90.533 184.945)" fill="#f2f2f2"/><rect width="123.297" height="2.252" transform="translate(90.533 219.851)" fill="#f2f2f2"/><rect width="38.284" height="2.252" transform="translate(90.533 227.17)" fill="#f2f2f2"/><rect width="123.297" height="2.252" transform="translate(90.533 262.076)" fill="#f2f2f2"/><rect width="38.284" height="2.252" transform="translate(90.533 269.395)" fill="#f2f2f2"/><path d="M1005.277,749.181c0,11.461-6.812,15.462-15.217,15.462-.195,0-.389,0-.583-.007-.389-.008-.776-.027-1.157-.053-7.585-.536-13.477-4.744-13.477-15.4,0-11.028,14.092-24.945,15.154-25.977h0l.062-.06S1005.277,737.721,1005.277,749.181Z" transform="translate(-448.02 -372.572)" fill="#6c63ff"/><path d="M996.143,762.889l5.566-7.776-5.58,8.63-.014.892c-.389-.008-.776-.027-1.157-.053l.6-11.465,0-.09.01-.015.057-1.084-5.594-8.651,5.611,7.839.014.23.452-8.662-4.788-8.94,4.847,7.42.472-17.96v0l-.078,14.162,4.767-5.615-4.787,6.835-.126,7.756,4.452-7.444-4.471,8.585-.07,4.312,6.461-10.361L996.3,753.3Z" transform="translate(-454.655 -372.572)" fill="#3f3d56"/><path d="M128.28,610.181c0,11.461-6.812,15.462-15.217,15.462-.195,0-.389,0-.583-.007-.389-.008-.776-.027-1.157-.053-7.585-.536-13.477-4.744-13.477-15.4,0-11.028,14.092-24.945,15.154-25.977h0l.062-.06S128.28,598.721,128.28,610.181Z" transform="translate(-64.771 -311.829)" fill="#8038c5"/><path d="M119.143,623.889l5.566-7.776-5.58,8.63-.014.892c-.389-.008-.776-.027-1.157-.053l.6-11.465,0-.09.01-.015.057-1.084-5.594-8.651,5.611,7.839.014.23.452-8.662-4.788-8.94,4.847,7.42.472-17.961v0l-.078,14.162,4.767-5.615-4.787,6.835-.126,7.756,4.452-7.444-4.471,8.585-.07,4.312,6.461-10.361L119.3,614.3Z" transform="translate(-71.404 -311.829)" fill="#3f3d56"/></svg>