<svg xmlns="http://www.w3.org/2000/svg" xmlns:xlink="http://www.w3.org/1999/xlink" width="1598.999" height="564.874" viewBox="0 0 1598.999 564.874"><defs><linearGradient id="a" x1="1.123" y1="1.333" x2="-0.961" y2="-3.401" gradientUnits="objectBoundingBox"><stop offset="0" stop-color="#867eff"/><stop offset="1" stop-color="#6159e5"/></linearGradient><linearGradient id="b" x1="1.071" y1="0.843" x2="-0.469" y2="0.877" xlink:href="#a"/></defs><g transform="translate(45.22 -3630.563)"><path d="M0,564.874V254.248C179.023,75.841,318.772-102,607.117,69.73,850.094,214.441,1048.883,196.922,1215.939,179.4c150.367-15.769,275.027-31.537,383.06,71V521.441q-20.048,20.2-43.131,43.434Z" transform="translate(-45.22 3630.563)" fill="url(#a)"/><path d="M0,444.5V189.243c43.78,7.7,95.566,22.179,156.778,45.012,228.506,85.234,376.282-7.537,503.741-100.309C802.71,30.453,919.617-73.041,1095.119,70.6,1289.276,229.516,1465.195,194.768,1599,210.548V444.5Z" transform="translate(-45.22 3750.938)" fill="url(#b)"/></g></svg>