<svg xmlns="http://www.w3.org/2000/svg" xmlns:xlink="http://www.w3.org/1999/xlink" width="3101.78" height="2969.411" viewBox="0 0 3101.78 2969.411"><defs><linearGradient id="a" x1="0.5" x2="1.188" y2="1.07" gradientUnits="objectBoundingBox"><stop offset="0" stop-color="#867eff"/><stop offset="1" stop-color="#6159e5"/></linearGradient></defs><g transform="translate(4512.237 -3009.664)"><path d="M2328.609,2409.575s1.578,61.769.063,167.289c-102.022,72.653-249.011,56.705-464.25-279.329-403.067-629.275-1054.906-4.592-1209.2-613.344S-64.962,1186.431,117.236,664.605c24.882-2.734,2206.57-4.061,2206.57-4.061l2.8,556.366-.934,173.611.934,494.435,2,327.3Z" transform="translate(-1018.128 4799.066) rotate(135)" fill="url(#a)"/><path d="M1670.985,1855.789s1.116,42.211.045,114.321c-72.165,49.649-176.137,38.751-328.386-190.886-285.109-430.031-746.186-3.138-855.326-419.145S-22.1,1019.922,106.775,663.319c17.6-1.869,1560.813-2.775,1560.813-2.775l1.982,380.207-.661,118.641.661,337.885,1.415,223.67Z" transform="matrix(-0.809, 0.588, -0.588, -0.809, -956.272, 4988.155)" fill="url(#a)"/></g></svg>